# https://github.com/mikedh/trimesh
v -0.01581393 -0.01509995 -0.01208215
v -0.01511393 -0.01579995 -0.01208215
v -0.01579008 -0.01528112 -0.01208215
v 0.01543607 -0.01570617 -0.01208215
v 0.01569229 -0.01544995 -0.01208215
v 0.01558104 -0.01559492 -0.01208215
v 0.01510825 0.01415388 -0.01208215
v 0.01508607 0.01580005 -0.01208215
v 0.01578607 -0.01509995 -0.01208215
v 0.01576222 -0.01528112 -0.01208215
v 0.01526724 -0.01577610 -0.01208215
v 0.01413990 -0.01512213 -0.01208215
v 0.01373104 -0.00742852 -0.01092690
v -0.01511393 0.01580005 -0.01208215
v -0.01527092 0.01409375 -0.01208215
v -0.01560890 0.01559503 -0.01208215
v -0.01579008 0.01528122 -0.01208215
v -0.01572015 0.01545005 -0.01208215
v -0.01546393 0.01570627 -0.01208215
v -0.01529510 0.01577620 -0.01208215
v -0.01546393 -0.01570617 -0.01208215
v -0.01529510 -0.01577610 -0.01208215
v 0.01558104 0.01559503 -0.01208215
v 0.01569229 0.01545005 -0.01208215
v 0.01576222 0.01528122 -0.01208215
v -0.01560890 -0.01559492 -0.01208215
v 0.01543607 0.01570627 -0.01208215
v -0.01572015 -0.01544995 -0.01208215
v 0.01526724 0.01577620 -0.01208215
v -0.01511393 -0.01579995 0.00621785
v 0.01508607 -0.01579995 0.00621785
v -0.01529510 -0.01577610 0.00621785
v -0.01560890 -0.01559492 0.00621785
v -0.01572015 -0.01544995 0.00621785
v -0.01579008 -0.01528112 0.00621785
v -0.01581393 -0.01509995 0.00621785
v 0.01526724 -0.01577610 0.00621785
v 0.01543607 -0.01570617 0.00621785
v 0.01558104 -0.01559492 0.00621785
v 0.01569229 -0.01544995 0.00621785
v 0.01576222 -0.01528112 0.00621785
v 0.01578607 -0.01509995 0.00621785
v -0.01581393 0.01510005 0.00621785
v 0.01578607 0.01510005 0.00621785
v -0.01579008 0.01528122 0.00621785
v -0.01572015 0.01545005 0.00621785
v -0.01546393 0.01570627 0.00621785
v -0.01529510 0.01577620 0.00621785
v -0.01511393 0.01580005 0.00621785
v 0.01576222 0.01528122 0.00621785
v 0.01569229 0.01545005 0.00621785
v 0.01558104 0.01559503 0.00621785
v 0.01543607 0.01570627 0.00621785
v 0.01526724 0.01577620 0.00621785
v 0.01508607 0.01580005 0.00621785
v -0.01153893 0.00100005 0.00566785
v 0.00289995 0.00875630 0.00525410
v -0.00701393 0.01405005 0.00516785
v 0.01115036 0.01116434 0.00566785
v 0.01115036 -0.01116424 0.00566785
v -0.00003937 -0.00974086 0.00530462
v -0.01153893 -0.01152495 0.00566785
v -0.01511393 -0.01577610 0.00639903
v 0.01529101 -0.01569273 0.00654915
v -0.01511393 -0.01570617 0.00656785
v 0.01508607 -0.01570617 0.00656785
v -0.01511393 -0.01559492 0.00671283
v 0.01508607 -0.01559492 0.00671283
v -0.01511393 -0.01544995 0.00682407
v 0.01508607 -0.01544995 0.00682407
v -0.01511393 -0.01528112 0.00689400
v 0.01508607 -0.01528112 0.00689400
v -0.01511393 -0.01509995 0.00691785
v 0.01508607 -0.01509995 0.00691785
v -0.01579008 -0.01509995 0.00639903
v -0.01529510 -0.01509995 0.00689400
v -0.01546393 -0.01509995 0.00682407
v -0.01560890 -0.01509995 0.00671283
v -0.01547627 -0.01553078 0.00671700
v -0.01572015 -0.01509995 0.00656785
v 0.01576222 -0.01509995 0.00639903
v 0.01543607 -0.01509995 0.00682407
v 0.01529642 -0.01530410 0.00686688
v 0.01558104 -0.01509995 0.00671283
v 0.01564818 -0.01533262 0.00657628
v -0.01579008 0.01510005 0.00639903
v -0.01560890 0.01510005 0.00671283
v -0.01546393 0.01510005 0.00682407
v -0.01529510 0.01510005 0.00689400
v -0.01511393 0.01510005 0.00691785
v 0.01576222 0.01510005 0.00639903
v 0.01569229 0.01510005 0.00656785
v 0.01558104 0.01510005 0.00671283
v 0.01526724 0.01510005 0.00689400
v 0.01508607 0.01510005 0.00691785
v -0.01511393 0.01577620 0.00639903
v -0.01531338 0.01531294 0.00686804
v -0.01511393 0.01545005 0.00682407
v -0.01511393 0.01559503 0.00671283
v -0.01562053 0.01550018 0.00656389
v -0.01511393 0.01570627 0.00656785
v 0.01508607 0.01577620 0.00639903
v 0.01508607 0.01528122 0.00689400
v 0.01508607 0.01559503 0.00671283
v 0.01508607 0.01570627 0.00656785
v 0.01544272 0.01545317 0.00676917
v -0.01270672 -0.00858995 -0.01031219
v -0.00859643 -0.00554745 0.00224535
v -0.00848734 0.00616652 0.00050398
v -0.01117822 0.01116434 0.00566785
v -0.01300078 0.00858484 -0.01063876
v -0.00794726 0.01390811 -0.01167247
v -0.00701393 0.00700005 0.00591785
v -0.00884225 -0.01355992 -0.01147692
v -0.00631305 0.00300005 0.00349036
v -0.00701393 -0.00699995 0.00591785
v 0.00711863 0.00846982 -0.00169145
v 0.00902840 0.01229590 -0.01080931
v 0.01380841 0.00750005 -0.01182364
v 0.00629163 0.00653378 0.00480180
v 0.00698607 0.00700005 0.00591785
v 0.00698607 -0.00699995 0.00591785
v 0.00922965 -0.01165659 -0.00879720
v 0.01204623 -0.01181270 0.00691785
v 0.00006566 -0.00851553 0.00683044
v -0.00605539 -0.01327292 0.00691785
v 0.01263048 0.00469240 0.00691441
v -0.01317258 -0.00820558 0.00691785
v -0.01295414 0.00500927 0.00691785
v -0.00369869 0.01059401 0.00691785
v -0.00808544 0.01329759 0.00694556
v 0.00158979 0.00655804 0.00591785
v 0.00624126 -0.00339306 0.00591786
v -0.00334376 0.00587336 0.00591785
v -0.00604353 0.00282554 0.00591785
v -0.00655320 -0.00215788 0.00591784
v -0.00125620 -0.00681974 0.00591786
v 0.00564967 0.00367439 0.00591785
v 0.00898607 -0.00406662 0.00525118
v 0.00505607 -0.00575647 0.00511350
v 0.01213843 -0.01029134 0.01126388
v 0.00707418 -0.01275594 0.01123627
v 0.01255174 0.00988848 0.01082900
v 0.00045757 0.00716945 0.00689238
v 0.00903983 0.00342587 0.01159640
v -0.00346718 0.00986239 0.01106933
v -0.00715458 0.00314103 0.01104760
v -0.00656342 -0.00207217 0.00704946
v -0.01264148 -0.00931754 0.01144105
v 0.00607422 0.00253166 -0.00958756
v 0.00476804 0.00467097 -0.00958409
v 0.00360583 0.00558224 -0.01044574
v 0.00091001 0.00655441 -0.00958445
v -0.00379171 0.00533087 -0.00965549
v -0.00662216 -0.00046111 -0.00958426
v -0.00641849 -0.00185943 -0.01054564
v -0.00490029 -0.00373749 -0.00957884
v -0.00239767 -0.00618733 -0.01054539
v 0.00278174 -0.00598657 -0.01030064
v 0.00414214 -0.00459110 -0.00963675
v 0.00793245 -0.01269907 0.01153435
v 0.01066514 -0.01202676 0.01114521
v 0.00826774 -0.01240067 0.01165997
v 0.01062176 -0.01223409 0.01141267
v 0.01281387 -0.00821772 0.01127884
v 0.01231181 -0.00839051 0.01174774
v 0.01254234 -0.00613718 0.01107701
v 0.01222912 -0.00621940 0.01155952
v 0.01198003 -0.00622069 0.01166316
v 0.01037646 -0.00233219 0.00800116
v 0.00992820 -0.00387268 0.01158686
v 0.01020700 -0.00436280 0.01169473
v 0.00445187 -0.00463895 0.01144893
v 0.00922169 -0.00340491 0.01147782
v 0.00571027 -0.00370098 0.01143176
v 0.00508765 -0.00449637 0.01157474
v 0.00649255 -0.00379855 0.01167200
v 0.00327181 -0.00742068 0.01147068
v 0.00431134 -0.00566804 0.01168160
v 0.00341743 -0.00933645 0.01134939
v 0.00361261 -0.00989133 0.01150270
v 0.00369103 -0.00872349 0.01167761
v 0.00536466 -0.01198521 0.01131646
v 0.00548405 -0.01194249 0.01149206
v 0.00515603 -0.01149522 0.01165089
v 0.00664500 -0.01210480 0.01167160
v 0.01117251 0.00433617 0.01141641
v 0.01264275 0.00679705 0.01131126
v 0.01247451 0.00749070 0.01166608
v 0.01223749 0.01029174 0.01134622
v 0.01222912 0.00978060 0.01155952
v 0.01173201 0.01041982 0.01165435
v 0.01037847 0.01209856 0.01150012
v 0.01008745 0.01207183 0.01157219
v 0.00752133 0.01276554 0.01150205
v 0.00969772 0.01186682 0.01170985
v 0.00727242 0.01255992 0.01159536
v 0.00675274 0.01383764 0.00819210
v 0.00662640 0.01213324 0.01167084
v 0.00480914 0.01122633 0.01163555
v 0.00350377 0.00990991 0.01123523
v 0.00364733 0.00954582 0.01159718
v 0.00318997 0.00747028 0.01129002
v 0.00350926 0.00702376 0.01157220
v 0.00459726 0.00461739 0.01151820
v 0.00483548 0.00517450 0.01167831
v 0.00602597 0.00383463 0.01152141
v 0.00710336 0.00337276 0.01137164
v 0.00539092 0.00422376 0.01157219
v 0.00566654 0.00432121 0.01167249
v -0.00677252 0.00364100 0.01167401
v -0.00873582 0.00365009 0.01167109
v -0.00538935 0.00398315 0.01138306
v -0.00373108 0.00603028 0.01153345
v -0.00409249 0.01040741 0.01161438
v -0.00585110 0.01237367 0.01126454
v -0.00661419 0.01247879 0.01153041
v -0.00896185 0.01274979 0.01115166
v -0.00710594 0.01228248 0.01166058
v -0.00892430 0.01248344 0.01162267
v -0.01059962 0.01188565 0.01151133
v -0.01192551 0.01083794 0.01130168
v -0.01272309 0.00792840 0.01151875
v -0.01228810 0.00982814 0.01156130
v -0.01198263 0.01004101 0.01166914
v -0.01232771 0.00575494 0.01121022
v -0.01198332 0.00563007 0.01154244
v -0.01243130 0.00724418 0.01167809
v -0.01030691 0.00382862 0.01144886
v -0.01026949 0.00433913 0.01168040
v -0.00936948 0.00351470 0.01147833
v -0.00541645 -0.01207507 0.01129321
v -0.00849213 -0.01240272 0.01166979
v -0.00611673 -0.01231413 0.01158632
v -0.00318614 -0.00821773 0.01127887
v -0.00407055 -0.01016784 0.01160087
v -0.00347374 -0.00947105 0.01148803
v -0.00401481 -0.00925230 0.01170989
v -0.00364293 -0.00628655 0.01146835
v -0.00389569 -0.00708382 0.01170564
v -0.00478283 -0.00462605 0.01153169
v -0.00651888 -0.00342486 0.01129261
v -0.00633500 -0.00370929 0.01159843
v -0.00868818 -0.00334208 0.01152593
v -0.00823561 -0.00369736 0.01167501
v -0.01070968 -0.00396200 0.01142754
v -0.01065005 -0.00462578 0.01169548
v -0.01182454 -0.00567657 0.01165339
v -0.01268130 -0.00666902 0.01125961
v -0.01237930 -0.00738236 0.01167159
v -0.01213809 -0.01049991 0.01148462
v -0.01179605 -0.00955936 0.01169849
v -0.01015344 -0.01223594 0.01142975
v -0.01121368 -0.01104709 0.01165848
v -0.00957899 -0.01211870 0.01166257
v -0.00837277 -0.01275725 0.01130408
v 0.00310421 0.00482780 -0.00958200
v -0.00057330 0.00597383 -0.00957342
v -0.00380534 -0.00459750 -0.00957669
v 0.00657392 -0.00087470 -0.00958722
v 0.00432179 0.00372120 -0.00962407
v 0.00035254 -0.00645126 -0.00959037
v 0.00105620 -0.00555375 -0.00959354
v -0.00511656 0.00256540 -0.00960154
v -0.00490523 0.00390537 -0.00956523
v 0.00477947 -0.00316841 -0.00961211
v -0.00315322 0.00476668 -0.00966632
v 0.00565465 -0.00053411 -0.00965654
v 0.00619174 0.00088492 -0.00959542
v 0.00104245 0.00558461 -0.00960257
v 0.00432966 0.00384364 -0.00958215
v 0.01118617 -0.01097430 0.01167995
v 0.00422701 0.00867665 0.01164358
v 0.00800409 0.00353279 0.01167170
v 0.00365962 0.00735342 0.01167417
v 0.00736870 0.01169025 0.01162947
v -0.01172621 0.00946985 0.01166735
v -0.00344686 0.00785466 0.01163969
v -0.01143741 -0.00688579 0.01159900
v -0.00874472 -0.01183087 0.01166785
v -0.00522968 -0.00474722 0.01168134
v 0.00608427 0.00013867 -0.00977806
v 0.00646662 0.00210386 -0.01208210
v 0.00500106 0.00444602 -0.01115535
v 0.00288137 0.00615288 -0.01208215
v -0.00080025 0.00679901 -0.01106883
v 0.00023713 0.00648439 -0.00983194
v -0.00494534 0.00469797 -0.01155192
v -0.00610498 0.00105656 -0.00958254
v -0.00694532 0.00043537 -0.01139273
v -0.00469707 -0.00494638 -0.01208207
v -0.00509995 -0.00441552 -0.01101542
v -0.00045674 -0.00670889 -0.01129451
v 0.00515093 -0.00385398 -0.01045994
v 0.00640916 -0.00049927 -0.00983215
v 0.00531366 0.00094064 -0.01133211
v 0.00446809 0.00280876 -0.01208249
v 0.00304595 0.00463338 -0.01069748
v 0.00016017 0.00550785 -0.01130104
v -0.00077003 0.00515958 -0.01208222
v -0.00251882 0.00459528 -0.01208224
v -0.00576371 -0.00007640 -0.00970897
v -0.00478462 0.00242153 -0.01208315
v -0.00516248 -0.00110873 -0.01208234
v -0.00417196 -0.00358861 -0.01106955
v -0.00298049 -0.00427477 -0.01208225
v -0.00230398 -0.00466853 -0.01208215
v -0.00133837 -0.00534830 -0.01095580
v 0.00023323 -0.00556694 -0.01073206
v 0.00263722 -0.00479805 -0.01121561
v 0.00386655 -0.00392088 -0.01113519
v 0.00637109 -0.00076560 -0.01194626
v 0.00408045 -0.00385234 0.00591786
v 0.00531328 -0.00136774 0.00591785
v -0.00596589 0.00000006 0.00591790
v 0.00507835 0.00286614 0.00591791
v -0.00123344 -0.00571611 0.00591793
v -0.00036019 0.00568629 0.00591786
v -0.00351976 0.00423787 0.00591785
v 0.00639098 -0.01112870 0.01141623
v 0.00778432 -0.01167935 0.01161326
v 0.00985388 -0.01137237 0.01166025
v 0.00764500 -0.01106296 0.00780455
v 0.01112970 -0.01016484 0.01165747
v 0.00970740 -0.01121588 0.01135144
v 0.01142362 -0.00899497 0.01115010
v 0.01176267 -0.00756231 0.01163422
v 0.01107942 -0.00575248 0.01166021
v 0.01077795 -0.00597150 0.01134882
v 0.01030719 -0.00517374 0.01159748
v 0.01041682 -0.00567464 0.01064196
v 0.00673627 -0.00440203 0.01166971
v 0.00815935 -0.00433409 0.01160017
v 0.00524347 -0.00542209 0.01164640
v 0.00437990 -0.00706055 0.01163105
v 0.00808589 -0.00449452 0.01055643
v 0.00572744 -0.00515039 0.01154198
v 0.00437092 -0.00803044 0.01152129
v 0.00496812 -0.00618609 0.01140764
v 0.00495643 -0.00992792 0.01157703
v 0.00609343 -0.01126667 0.01165316
v 0.00499345 -0.00868199 0.00732687
v 0.00628273 0.00499694 0.01134474
v 0.00813312 0.00437524 0.01157242
v 0.00884047 0.00437012 0.01163483
v 0.00623600 0.00538050 0.00719163
v 0.01050436 0.00496707 0.01171434
v 0.00808464 0.00491888 0.00713424
v 0.01064949 0.00562556 0.01148064
v 0.01126494 0.00611897 0.01162482
v 0.01173655 0.00838958 0.01164681
v 0.01116105 0.01013218 0.01164400
v 0.01129165 0.00642374 0.01125154
v 0.01105010 0.00954093 0.01124634
v 0.00969562 0.01115885 0.01147010
v 0.00640890 0.01136298 0.01163562
v 0.00776534 0.01150842 0.01145535
v 0.00453683 0.00967683 0.01166110
v 0.00649576 0.01056593 0.00746297
v 0.00538562 0.01052322 0.01158503
v 0.00540741 0.01024194 0.01125507
v 0.00459602 0.00869509 0.01130876
v 0.00485046 0.00651704 0.01136207
v 0.00454742 0.00849300 0.01114900
v 0.00471627 0.00614173 0.01163945
v 0.00495278 0.00638363 0.01124129
v 0.00566981 0.00520017 0.01155199
v -0.00957138 0.00494166 0.01132893
v -0.00733381 0.00427176 0.01162716
v -0.00779042 0.00444732 0.01145267
v -0.00691891 0.00455203 0.01139777
v -0.00439892 0.00596474 0.01168992
v -0.00488542 0.00617135 0.01155959
v -0.00502560 0.00635967 0.01126967
v -0.00426345 0.00838958 0.01164681
v -0.00452920 0.00807198 0.01133663
v -0.00455087 0.01012313 0.01169743
v -0.00570145 0.01079533 0.01157180
v -0.00500519 0.00961607 0.01122732
v -0.00824553 0.01182504 0.01165866
v -0.00600871 0.01079468 0.01124103
v -0.00633612 0.01156990 0.01171708
v -0.01030012 0.01123243 0.01170028
v -0.00821876 0.01158941 0.01149380
v -0.01035416 0.01068502 0.01147143
v -0.01051388 0.01034767 0.01126591
v -0.01176055 0.00860598 0.01162854
v -0.01156942 0.00826513 0.01144166
v -0.01126236 0.00630786 0.01160887
v -0.00961937 0.00458832 0.01165082
v -0.01092721 0.00619635 0.01130219
v -0.01045817 0.00511664 0.01163896
v -0.00908910 -0.01139072 0.01150458
v -0.00786688 -0.01162476 0.01157242
v -0.01005565 -0.01082039 0.01140980
v -0.00835946 -0.01139782 0.01123344
v -0.00615122 -0.01127499 0.01161855
v -0.00532367 -0.01114997 0.01170724
v -0.00595693 -0.01072945 0.01123265
v -0.00547554 -0.01035628 0.01125934
v -0.00583684 -0.01017991 0.00710835
v -0.00452635 -0.00822633 0.01145609
v -0.00480242 -0.00545401 0.01169620
v -0.00491971 -0.00760225 0.00720813
v -0.00494537 -0.00576869 0.01161649
v -0.00825903 -0.00419898 0.01165130
v -0.00752672 -0.00412879 0.01170711
v -0.00697071 -0.00469105 0.01133527
v -0.01082340 -0.00567151 0.01160134
v -0.00857586 -0.00458930 0.01129839
v -0.01011257 -0.00510725 0.01148661
v -0.01170690 -0.00781080 0.01161350
v -0.01145105 -0.00940299 0.01162034
v -0.01155640 -0.00795976 0.01117086
v -0.00963743 -0.01145005 0.01166211
v -0.01141332 -0.00899509 0.01130338
v -0.01005753 -0.01113999 0.01164276
v 0.00980788 -0.01087066 0.00691785
v 0.01072975 -0.00983555 0.00693638
v 0.01137443 -0.00842798 0.00691785
v 0.01031322 -0.00516693 0.00693202
v 0.00648784 -0.00503042 0.00693847
v 0.00499323 -0.00635461 0.00691785
v 0.00543050 -0.01039976 0.00691785
v 0.00734897 -0.01133973 0.00691785
v 0.01047242 0.00579037 0.00694871
v 0.01138607 0.00800005 0.00691785
v 0.01127925 0.00715451 0.00691785
v 0.01018580 0.01041044 0.00708928
v 0.00734897 0.01133983 0.00691785
v 0.00423909 0.00737119 0.00691785
v -0.00461393 0.00800005 0.00691785
v -0.00503841 0.00643004 0.00694570
v -0.00541913 0.01049003 0.00692947
v -0.00822840 0.01140860 0.00691785
v -0.01009440 0.01052769 0.00710565
v -0.01110976 0.00939015 0.00693755
v -0.01111185 0.00690837 0.00697019
v -0.00943858 0.00542073 0.00722013
v -0.00784331 0.00457214 0.00693106
v -0.00734305 -0.01099741 0.00715297
v -0.00462557 -0.00842798 0.00691785
v -0.00589176 -0.00531314 0.00691785
v -0.00749354 -0.00491145 0.00779061
v -0.00865103 -0.00466017 0.00691785
v -0.00988918 -0.00528303 0.00694165
v -0.01140897 -0.00748497 0.00705575
v -0.01030844 -0.01059886 0.00691785
v -0.00865103 -0.01133973 0.00691785
vn -0.68375890 0.02407018 -0.72931090
vn -0.00686214 -0.69722224 -0.71682220
vn -0.70923683 -0.19003316 -0.67887445
vn 0.36714175 -0.63588057 -0.67886879
vn 0.63588057 -0.36714175 -0.67886879
vn 0.51919007 -0.51919007 -0.67888389
vn 0.41272158 -0.42903718 -0.80348491
vn -0.00313516 0.70057581 -0.71357110
vn 0.70774498 0.00585095 -0.70644377
vn 0.70923683 -0.19003316 -0.67887445
vn -0.05055845 -0.78225549 -0.62090273
vn -0.39964921 -0.40752203 -0.82110067
vn -0.74600088 -0.03084683 -0.66523016
vn -0.02825255 0.71332399 -0.70026472
vn -0.46346818 -0.40932306 -0.78590831
vn -0.51919781 0.51920304 -0.67886806
vn -0.77680535 -0.00628479 -0.62970941
vn -0.63588394 0.36712957 -0.67887222
vn -0.36712588 0.63588496 -0.67887326
vn -0.19003316 0.70923683 -0.67887445
vn -0.36715079 -0.63589612 -0.67884934
vn -0.19003316 -0.70923683 -0.67887445
vn 0.51919262 0.51919786 -0.67887599
vn 0.63588394 0.36712957 -0.67887222
vn 0.78225549 -0.05055845 -0.62090273
vn -0.51919007 -0.51919007 -0.67888389
vn 0.36712588 0.63588496 -0.67887326
vn -0.63588057 -0.36714175 -0.67886879
vn 0.19003316 0.70923683 -0.67887445
vn -0.06135913 -0.99620103 0.06179457
vn 0.04833319 -0.98985542 0.13360447
vn -0.48475295 -0.87032848 0.08684991
vn -0.28082710 -0.95445057 0.10079809
vn -0.86024502 -0.48216527 0.16581663
vn -0.94696920 -0.28361066 0.15104409
vn -0.99575501 -0.06508615 0.06508259
vn 0.25228287 -0.96139610 0.10986763
vn 0.50719490 -0.85238836 0.12722975
vn 0.69738500 -0.69861138 0.15998844
vn 0.85885925 -0.49272002 0.13995635
vn 0.94696920 -0.28361066 0.15104409
vn 0.99620103 -0.06135913 0.06179457
vn -0.99617511 0.06325987 0.06027723
vn 0.99666942 0.05922109 0.05606183
vn -0.94696920 0.28361066 0.15104409
vn -0.76453653 0.63908147 0.08401644
vn -0.56619043 0.81422039 0.12834935
vn -0.28361066 0.94696920 0.15104409
vn -0.06508615 0.99575501 0.06508259
vn 0.94696920 0.28361066 0.15104409
vn 0.85431530 0.48739093 0.18054209
vn 0.69678502 0.69701914 0.16927777
vn 0.48733307 0.85418528 0.18131184
vn 0.28361066 0.94696920 0.15104409
vn 0.06508615 0.99575501 0.06508259
vn 0.27806637 -0.10397416 -0.95491804
vn -0.30034667 -0.38765218 -0.87150311
vn 0.48520929 -0.59805764 -0.63788636
vn 0.07997858 0.00919220 -0.99675420
vn 0.06215294 -0.01049771 -0.99801143
vn 0.13811045 0.60435619 -0.78465221
vn 0.00000000 0.00000000 0.00000000
vn -0.13145878 -0.95251896 0.27463835
vn 0.34328944 -0.81260136 0.47098980
vn -0.11589623 -0.87039768 0.47851430
vn 0.03687470 -0.99785689 0.05405441
vn -0.05863561 -0.70965161 0.70210858
vn 0.12012808 -0.68791346 0.71578231
vn -0.07555681 -0.48718967 0.87002149
vn 0.10006531 -0.51817599 0.84940013
vn -0.15869165 -0.23154252 0.95979426
vn 0.04854479 -0.25309400 0.96622297
vn -0.09222928 -0.09349311 0.99133889
vn 0.10230340 -0.04978372 0.99350672
vn -0.94651825 -0.15232537 0.28442956
vn -0.23900937 -0.14649703 0.95990267
vn -0.49255192 -0.09898871 0.86463509
vn -0.70923446 -0.10466284 0.69716008
vn -0.52032133 -0.59148641 0.61596228
vn -0.86413979 -0.16128949 0.47670548
vn 0.94126021 -0.09194546 0.32492345
vn 0.48595546 -0.08559547 0.86978199
vn 0.34640053 -0.32554171 0.87978933
vn 0.74740298 -0.09102011 0.65810647
vn 0.77485552 -0.37663487 0.50768602
vn -0.90099239 0.08430339 0.42556509
vn -0.85500103 0.08643454 0.51137296
vn -0.51830662 0.10259869 0.84901811
vn -0.25404191 0.04794641 0.96600406
vn -0.05084913 0.09905955 0.99378145
vn 0.94432644 0.15812145 0.28852241
vn 0.86511608 0.17493674 0.47007585
vn 0.63056516 0.06749078 0.77319633
vn 0.32740270 0.09457170 0.94014024
vn 0.11108959 0.09985961 0.98878064
vn -0.15025948 0.94722146 0.28318474
vn -0.30383187 0.34279114 0.88892093
vn -0.08357960 0.49083441 0.86723471
vn -0.15204275 0.70384461 0.69389176
vn -0.68925623 0.54979858 0.47185525
vn -0.16915957 0.85697205 0.48680997
vn 0.15880406 0.94407077 0.28898383
vn 0.09372704 0.33193823 0.93863318
vn 0.06942261 0.62770207 0.77535193
vn 0.17701393 0.86473009 0.47000844
vn 0.49813601 0.49557086 0.71152655
vn 0.65834606 0.26115140 -0.70596063
vn -0.21469051 0.68472508 -0.69646217
vn 0.08966407 -0.77500449 -0.62556246
vn -0.05098256 0.05388301 -0.99724490
vn 0.76888342 0.05308848 -0.63718122
vn 0.06661743 -0.59286788 -0.80253959
vn 0.60680048 -0.76390525 -0.21964049
vn 0.15147770 0.52094718 -0.84004080
vn 0.97559416 -0.05176172 -0.21339342
vn 0.59942368 0.79355827 -0.10467344
vn -0.63448134 -0.68787420 -0.35250890
vn -0.00626043 -0.70374894 -0.71042117
vn -0.48064020 0.02836337 -0.87645908
vn -0.77429378 -0.63108506 -0.04691254
vn -0.71808803 -0.61014685 -0.33476917
vn -0.73998362 0.66113572 -0.12378934
vn 0.13322931 0.80737932 -0.57479438
vn 0.29587461 -0.30051032 0.90672585
vn -0.02816733 -0.07986201 0.99640788
vn 0.09697822 -0.45536443 0.88500760
vn 0.32961646 -0.19246736 0.92428854
vn -0.45538733 -0.01801761 0.89011108
vn -0.32717476 -0.19851031 0.92387788
vn 0.34433135 0.47589674 0.80929488
vn -0.06174237 0.48105726 0.87451231
vn 0.13556525 0.58433392 -0.80010995
vn 0.45268521 -0.25801513 -0.85352463
vn -0.28355338 0.53262128 -0.79744094
vn -0.56590544 0.24849925 -0.78612922
vn -0.52546048 -0.20345703 -0.82613348
vn -0.08653835 -0.52799735 -0.84482537
vn 0.50958359 0.29073863 -0.80981209
vn -0.62220414 0.28271831 -0.73002217
vn -0.51501482 0.82746539 0.22374260
vn 0.68481857 -0.33973070 0.64467556
vn -0.21657894 -0.95648474 0.19552622
vn 0.91381707 0.39461209 -0.09601909
vn -0.07654260 -0.11551168 0.99035261
vn 0.07632981 -0.87319667 0.48135365
vn 0.79043906 0.47464242 0.38719591
vn 0.11099398 -0.99244292 0.05232011
vn 0.03646368 0.40029387 0.91566108
vn -0.79369415 -0.19288372 0.57692761
vn 0.95021871 0.23671381 -0.20261041
vn 0.52477011 0.74346767 -0.41457467
vn 0.73874917 0.40266701 -0.54047104
vn -0.04841584 0.97404593 -0.22111181
vn -0.77668691 0.61749195 -0.12434279
vn -0.97788572 0.20913950 0.00043488
vn -0.88862950 -0.33122911 -0.31721425
vn 0.33991441 -0.80769747 0.48174993
vn -0.33412730 -0.88859624 -0.31425415
vn 0.46179777 -0.81683748 -0.34571570
vn 0.87174059 0.34469132 0.34821865
vn 0.05296275 -0.88108642 0.46998050
vn 0.51615540 -0.83429235 -0.19375209
vn 0.05060405 -0.26957454 0.96164900
vn 0.44627775 -0.84820546 0.28527822
vn 0.94386355 -0.02650814 0.32927027
vn 0.26110787 -0.11855339 0.95800197
vn 0.90585820 0.38402896 0.17872513
vn 0.56664701 0.39496434 0.72312816
vn 0.26998309 0.32474190 0.90645012
vn 0.37199358 0.37749202 0.84800976
vn 0.42650077 0.51980411 0.74020320
vn 0.37473211 0.31893785 0.87054839
vn -0.58351381 0.66885985 0.46058456
vn 0.12322177 0.72444469 0.67823026
vn -0.46324338 0.82298718 0.32878210
vn -0.21669882 0.27945624 0.93538539
vn -0.06298214 0.44722586 0.89220081
vn -0.64773223 0.12285141 0.75189793
vn -0.28371182 0.13114263 0.94989958
vn -0.79283410 -0.10734065 0.59991005
vn -0.59741584 -0.34023296 0.72617894
vn -0.26006930 -0.02704498 0.96521113
vn -0.52000690 -0.82376252 0.22584981
vn -0.34061645 -0.65855051 0.67103774
vn -0.40259094 -0.38746286 0.82933291
vn -0.20372940 -0.49932764 0.84212009
vn 0.51943386 -0.62483793 0.58289453
vn 0.88148865 -0.20946143 0.42320642
vn 0.60352509 0.01241214 0.79724739
vn 0.74619614 0.52127689 0.41407937
vn 0.67844496 0.15616765 0.71786079
vn 0.58341527 0.44972882 0.67629181
vn 0.51210727 0.73812732 0.43921999
vn 0.15821944 0.46934431 0.86872465
vn -0.07070249 0.77098400 0.63291772
vn 0.02837171 0.10206154 0.99437342
vn -0.23229749 0.56570387 0.79121237
vn -0.06626068 0.83261197 0.54987892
vn -0.15876472 0.30746050 0.93822268
vn -0.46650838 0.50381182 0.72701003
vn -0.78983547 0.46217329 0.40318206
vn -0.54149196 0.15354356 0.82656568
vn -0.78816178 -0.08577465 0.60946183
vn -0.65725497 -0.23974132 0.71452082
vn -0.51978385 -0.64203827 0.56357041
vn -0.08497861 -0.05182475 0.99503409
vn -0.41603422 -0.86205875 0.28943090
vn -0.10576550 -0.99400081 0.02785763
vn -0.30473810 -0.54721692 0.77954367
vn -0.08473899 -0.21595201 0.97271991
vn 0.12865138 -0.48802098 0.86329853
vn -0.01623538 -0.44245037 0.89664602
vn 0.46051831 -0.71436426 0.52688385
vn 0.56959505 -0.28730632 0.77007569
vn 0.55528057 0.42549821 0.71457313
vn 0.50539493 0.79665483 0.33153740
vn 0.18435613 0.78776609 0.58773923
vn -0.22694549 0.94387955 0.23997319
vn 0.03564964 0.27433819 0.96097225
vn -0.10259439 0.56101502 0.82142348
vn -0.52037192 0.76091216 0.38758966
vn -0.78545587 0.56573229 0.25101005
vn -0.86218604 0.08638022 0.49917300
vn -0.88927681 0.25621503 0.37886754
vn -0.33348071 0.24227853 0.91109370
vn -0.82201231 -0.41601940 0.38887481
vn -0.50868675 -0.37288612 0.77601142
vn -0.49624353 -0.14660174 0.85571625
vn -0.38151080 -0.79560799 0.47059264
vn -0.14820643 -0.18924265 0.97068124
vn -0.27845309 -0.93118157 0.23529719
vn 0.57022929 -0.71155378 0.41052378
vn -0.04814419 -0.43113736 0.90100095
vn 0.25029755 -0.79029862 0.55926668
vn 0.82488757 0.01120231 0.56518581
vn 0.67147334 -0.58066716 0.46037941
vn 0.84732028 -0.29191320 0.44366093
vn 0.03543594 -0.00118262 0.99937125
vn 0.85551944 0.32199775 0.40546755
vn 0.22699952 0.00699357 0.97386976
vn 0.61493843 0.54006594 0.57461248
vn 0.22583767 0.88569334 0.40564103
vn 0.24518051 0.54516869 0.80167177
vn -0.19145487 0.97868143 0.07434844
vn -0.00525513 0.21365039 0.97689605
vn -0.57564487 0.74170326 0.34425173
vn -0.08677351 0.11401066 0.98968274
vn -0.48425188 0.31429614 0.81652805
vn -0.87942655 0.37142051 0.29775116
vn -0.39921540 0.03753648 0.91608847
vn -0.69018976 -0.55467778 0.46472643
vn -0.08493343 -0.01475416 0.99627738
vn -0.51229854 -0.80035058 0.31143082
vn -0.25070074 -0.29296113 0.92267162
vn -0.11620796 -0.33874095 0.93367568
vn -0.07825533 -0.93093971 0.35668945
vn -0.22282216 -0.95008852 -0.21836228
vn 0.80779272 -0.45290519 0.37729010
vn -0.61517862 0.43246362 0.65918926
vn 0.99639642 0.00269100 -0.08477575
vn -0.92573274 -0.37395819 -0.05633973
vn -0.18121518 -0.90052049 0.39525171
vn -0.57223697 0.81558582 0.08581736
vn 0.95504723 -0.26951873 0.12346842
vn -0.59044653 0.20887096 0.77958054
vn -0.99856150 0.00847061 0.05294504
vn 0.33842362 -0.93604295 0.09640048
vn -0.94286402 0.31843021 -0.09802875
vn 0.84925398 -0.07875952 0.52207721
vn -0.44261011 -0.89638193 0.02440731
vn -0.40625360 0.29852012 -0.86362246
vn 0.64485203 -0.30951332 0.69883286
vn 0.33683956 -0.05530269 0.93993655
vn -0.03569213 -0.42576595 0.90412910
vn -0.29703117 -0.00862687 0.95482881
vn 0.04505048 -0.53974900 0.84061969
vn -0.02494821 -0.03760060 0.99898137
vn 0.84890125 -0.07578777 0.52308974
vn 0.34183487 -0.17049035 0.92416555
vn 0.15779281 -0.30184754 0.94020715
vn 0.14364380 0.16664925 0.97549705
vn 0.25485231 0.31902645 0.91283757
vn 0.72069115 0.16582873 -0.67313081
vn 0.42972584 0.82510616 -0.36679085
vn 0.62534767 0.19897319 -0.75455283
vn -0.05038533 0.91770363 -0.39405756
vn -0.09451047 0.60056894 0.79396770
vn -0.65445781 0.62458067 -0.42612670
vn -0.68673246 0.21076727 0.69568361
vn -0.85007529 -0.04823402 -0.52444779
vn -0.61120008 -0.31695706 -0.72523974
vn -0.87373601 -0.48124973 -0.07059803
vn -0.08046472 -0.67513140 -0.73329599
vn 0.48941740 -0.85666511 -0.16308124
vn 0.75344646 0.49727964 0.43015276
vn -0.92131038 -0.27140910 -0.27843184
vn -0.60655332 -0.15925762 -0.77892880
vn -0.06489988 -0.78289426 -0.61876052
vn -0.01099733 -0.82388849 -0.56664522
vn 0.37791927 -0.45981599 -0.80358340
vn 0.35902854 -0.38102547 -0.85200827
vn 0.93320097 0.32262072 0.15827767
vn 0.42877495 -0.28305809 -0.85792200
vn 0.31555012 0.14116050 -0.93835059
vn 0.62076826 0.75850196 -0.19829660
vn 0.43505904 0.48400934 -0.75924870
vn 0.39674370 0.26762675 -0.87804918
vn 0.35088395 0.66929973 -0.65491856
vn -0.27527704 0.94081908 -0.19769170
vn 0.02576609 0.46559742 -0.88462147
vn -0.50169456 0.25988096 -0.82508452
vn 0.32250483 -0.31122297 -0.89394122
vn -0.50871787 0.57434326 -0.64135478
vn -0.73379206 0.15174238 -0.66221104
vn 0.77792593 0.06142312 -0.62534667
vn -0.65761493 -0.42196322 -0.62409106
vn 0.19627691 0.75981415 -0.61980468
vn -0.01514770 -0.77486854 -0.63194089
vn 0.49679627 -0.56202399 -0.66130364
vn 0.35627968 0.78011497 0.51428146
vn -0.01464939 0.35525077 0.93465624
vn -0.20793951 0.34379448 0.91573277
vn 0.18796163 0.91705225 0.35168962
vn 0.01703595 -0.05334498 0.99843081
vn -0.40467007 0.83770635 0.36672907
vn -0.87038557 0.30345614 0.38774132
vn -0.55781377 -0.17651328 0.81097895
vn -0.07752922 -0.04866760 0.99580153
vn -0.84652284 -0.51246577 0.14414548
vn -0.36095142 -0.46291878 0.80958031
vn -0.75392445 -0.64000825 0.14828134
vn 0.04375057 -0.10886322 0.99309349
vn -0.06108767 -0.64945174 0.75794508
vn 0.24107191 -0.22271653 0.94460663
vn 0.16684064 -0.06993302 0.98350067
vn -0.00634253 -0.99527978 0.09683974
vn 0.46974366 -0.63043848 0.61797105
vn 0.70214678 -0.05283265 0.71006944
vn 0.88518222 -0.45411486 0.10115402
vn 0.51601579 0.35693289 0.77866977
vn 0.15634069 0.24678008 0.95637711
vn 0.73742657 0.25517015 0.62537209
vn 0.44078752 0.89026864 0.11457796
vn -0.08698613 0.59944247 0.79567716
vn -0.09128322 0.12552345 0.98788220
vn 0.36249212 0.65657242 0.66144699
vn 0.02657239 0.03851263 0.99890474
vn -0.05368335 0.73796350 0.67270200
vn -0.31886517 0.41133229 0.85389153
vn -0.57011731 0.41406062 0.70959147
vn -0.19236578 -0.04561625 0.98026250
vn -0.24602963 -0.17876553 0.95263440
vn -0.89144349 0.38659582 0.23637298
vn -0.90436929 -0.26788834 0.33219275
vn -0.36816234 -0.65887730 0.65600091
vn 0.01776877 -0.07596695 0.99695200
vn -0.18031106 -0.91229563 0.36770178
vn -0.04887508 -0.00403776 0.99879674
vn 0.36041181 -0.71588318 0.59800886
vn 0.48428585 -0.48011110 0.73140997
vn 0.73125389 -0.60707281 0.31101504
vn 0.85238502 -0.24619152 0.46133448
vn 0.77093646 0.24735296 0.58691864
vn 0.98248809 -0.08795962 -0.16425666
vn 0.30090333 0.17578161 0.93731425
vn 0.83702709 0.54713623 -0.00525223
vn 0.25861889 0.36776862 0.89323150
vn 0.38440827 0.89559690 0.22391174
vn -0.04961186 0.36582345 0.92936100
vn 0.12587776 0.69636219 0.70656528
vn -0.43794957 0.89553204 0.07888305
vn 0.06291531 -0.07287715 0.99535450
vn -0.42427774 0.29096215 0.85751352
vn -0.81795725 0.47441432 0.32538743
vn -0.36115636 -0.03040742 0.93200937
vn -0.93592402 0.04314580 0.34954924
vn -0.03050229 -0.02807677 0.99914028
vn -0.49309356 -0.48926189 0.71936190
vn -0.87833602 -0.40454889 -0.25468812
vn 0.01166122 -0.23793741 0.97121048
vn -0.55169174 -0.75663968 0.35090257
vn -0.01287909 -0.12730769 0.99177965
vn 0.03054231 -0.05192837 0.99818366
vn 0.05779472 -0.82576387 0.56104706
vn 0.47551700 -0.47358484 0.74135078
vn 0.77227625 -0.62552104 0.11096321
vn 0.25565890 -0.07919075 0.96351822
vn 0.91693486 -0.00635235 0.39898635
vn 0.40324392 0.20941643 0.89080812
vn 0.01907689 0.05841454 0.99811012
vn 0.76749666 0.55967066 0.31259820
vn 0.20114826 0.19702053 0.95954275
vn 0.14550665 0.82584834 0.54479568
vn -0.08171035 0.82107665 0.56493943
vn 0.54922630 0.68150324 0.48363603
vn 0.29708633 0.94875062 0.10775887
vn -0.15675072 0.61479418 0.77295364
vn 0.04378166 0.01898540 0.99886071
vn -0.50873354 0.79722534 -0.32499529
vn -0.64558817 0.54266408 0.53733752
vn -0.50054338 0.55980784 0.66035710
vn -0.71197002 -0.00472491 0.70219396
vn 0.09662671 0.02242311 0.99506808
vn -0.63295507 -0.53643455 0.55821667
vn -0.46024945 -0.30204020 0.83483062
vn -0.03733588 -0.05322953 0.99788409
vn -0.03044089 -0.21967284 0.97509856
vn -0.35196672 -0.86955903 0.34639071
vn 0.25473571 -0.13029638 0.95819235
vn 0.25209924 -0.94264756 0.21877281
vn 0.38058922 -0.54062862 0.75024832
vn 0.28284329 -0.03677600 0.95846085
vn 0.42377778 0.21025090 0.88102608
vn 0.99688764 0.01495017 -0.07740495
vn 0.02966222 0.07613046 0.99665656
vn 0.61887390 0.21330843 0.75597263
vn 0.17274958 0.30870094 0.93534021
vn -0.15718309 0.54973752 0.82041583
vn -0.56066011 0.41553788 0.71623216
vn -0.75039042 0.02135816 0.66064972
vn -0.50668811 -0.60231888 0.61682989
vn 0.28442696 -0.70976011 0.64447024
vn 0.69390636 -0.24774980 0.67610206
vn 0.76786196 0.54131033 0.34259471
vn 0.00000000 0.00000000 0.00000000
vn -0.42614499 0.61264099 0.66563613
vn -0.73359225 -0.19139525 0.65208149
vn -0.66605602 0.21516982 0.71419279
vn -0.46438501 -0.60337010 0.64829861
vn 0.00000000 0.00000000 0.00000000
vn 0.76291286 0.09057158 0.64012558
vn -0.74223938 -0.01238989 0.67002030
vn -0.62911156 0.42627518 0.65000624
vn -0.55654325 -0.54828853 0.62421095
vn 0.06977326 -0.74969120 0.65809939
vn 0.46459426 -0.59874805 0.65242084
vn 0.63295368 -0.28607857 0.71939467
vn 0.63180348 0.31964444 0.70615281
vn 0.47092626 0.58908551 0.65666332
vn -0.00170929 0.75494542 0.65578540
vn -0.27766664 0.71295458 0.64389208
vn -0.73943383 0.05096050 0.67129773
vn -0.00000000 -0.00000000 -0.00000000
vn -0.44887682 -0.76208604 0.46662025
vn -0.14828829 -0.45843571 0.87626896
vn 0.48268218 -0.56942489 0.66541206
vn 0.76686263 -0.14391094 0.62546890
vn 0.54489193 0.51050557 0.66518933
vn 0.00693745 0.67272884 0.73985659
f 1//1 2//2 3//3
f 4//4 5//5 6//6
f 118//118 8//8 7//7
f 9//9 10//10 5//5
f 107//107 114//114 1//1
f 9//9 5//5 4//4
f 12//12 4//4 11//11
f 12//12 9//9 4//4
f 13//13 9//9 12//12
f 15//15 111//111 107//107
f 114//114 123//123 12//12
f 16//16 15//15 17//17
f 16//16 17//17 18//18
f 16//16 19//19 20//20
f 16//16 20//20 14//14
f 16//16 14//14 15//15
f 21//21 2//2 22//22
f 12//12 2//2 114//114
f 1//1 15//15 107//107
f 7//7 9//9 13//13
f 7//7 13//13 119//119
f 23//23 24//24 25//25
f 14//14 8//8 118//118
f 14//14 118//118 112//112
f 14//14 112//112 15//15
f 26//26 2//2 21//21
f 27//27 23//23 25//25
f 28//28 2//2 26//26
f 29//29 25//25 7//7
f 29//29 27//27 25//25
f 3//3 2//2 28//28
f 8//8 29//29 7//7
f 1//1 114//114 2//2
f 30//30 2//2 12//12
f 31//31 30//30 12//12
f 22//22 2//2 32//32
f 21//21 22//22 32//32
f 2//2 30//30 32//32
f 21//21 32//32 79//79
f 26//26 21//21 33//33
f 21//21 79//79 33//33
f 28//28 26//26 34//34
f 26//26 33//33 34//34
f 3//3 28//28 35//35
f 1//1 3//3 35//35
f 28//28 34//34 35//35
f 1//1 35//35 36//36
f 31//31 12//12 11//11
f 37//37 11//11 4//4
f 37//37 31//31 11//11
f 38//38 4//4 6//6
f 38//38 37//37 4//4
f 39//39 6//6 5//5
f 39//39 38//38 6//6
f 40//40 5//5 10//10
f 40//40 39//39 5//5
f 41//41 10//10 9//9
f 41//41 40//40 10//10
f 42//42 41//41 9//9
f 43//43 15//15 1//1
f 36//36 43//43 1//1
f 42//42 9//9 7//7
f 44//44 42//42 7//7
f 17//17 15//15 43//43
f 17//17 43//43 45//45
f 18//18 17//17 46//46
f 16//16 18//18 46//46
f 17//17 45//45 46//46
f 16//16 46//46 100//100
f 19//19 16//16 47//47
f 16//16 100//100 47//47
f 20//20 19//19 48//48
f 19//19 47//47 48//48
f 14//14 20//20 49//49
f 20//20 48//48 49//49
f 44//44 7//7 25//25
f 50//50 25//25 24//24
f 50//50 44//44 25//25
f 51//51 24//24 23//23
f 51//51 50//50 24//24
f 52//52 23//23 27//27
f 52//52 51//51 23//23
f 53//53 27//27 29//29
f 53//53 52//52 27//27
f 54//54 29//29 8//8
f 54//54 53//53 29//29
f 55//55 54//54 8//8
f 55//55 8//8 14//14
f 49//49 55//55 14//14
f 114//114 107//107 62//62
f 107//107 111//111 56//56
f 111//111 15//15 110//110
f 15//15 112//112 110//110
f 118//118 57//57 58//58
f 112//112 118//118 58//58
f 118//118 7//7 59//59
f 7//7 119//119 59//59
f 119//119 13//13 120//120
f 13//13 12//12 60//60
f 12//12 123//123 60//60
f 123//123 114//114 61//61
f 63//63 30//30 31//31
f 63//63 31//31 64//64
f 65//65 63//63 66//66
f 63//63 64//64 66//66
f 67//67 65//65 68//68
f 65//65 66//66 68//68
f 69//69 67//67 70//70
f 67//67 68//68 70//70
f 71//71 69//69 72//72
f 69//69 70//70 72//72
f 73//73 71//71 74//74
f 71//71 72//72 74//74
f 32//32 30//30 63//63
f 79//79 32//32 63//63
f 35//35 34//34 75//75
f 36//36 35//35 75//75
f 79//79 69//69 71//71
f 79//79 67//67 69//69
f 79//79 76//76 77//77
f 79//79 77//77 78//78
f 79//79 65//65 67//67
f 79//79 63//63 65//65
f 79//79 78//78 80//80
f 79//79 80//80 75//75
f 79//79 34//34 33//33
f 79//79 75//75 34//34
f 79//79 71//71 73//73
f 79//79 73//73 76//76
f 64//64 31//31 37//37
f 64//64 37//37 38//38
f 81//81 40//40 41//41
f 81//81 41//41 42//42
f 72//72 70//70 83//83
f 70//70 68//68 83//83
f 84//84 82//82 83//83
f 68//68 66//66 64//64
f 38//38 39//39 64//64
f 83//83 68//68 64//64
f 39//39 40//40 85//85
f 83//83 64//64 85//85
f 40//40 81//81 85//85
f 84//84 83//83 85//85
f 64//64 39//39 85//85
f 74//74 72//72 83//83
f 86//86 43//43 75//75
f 43//43 36//36 75//75
f 87//87 100//100 80//80
f 100//100 86//86 80//80
f 86//86 75//75 80//80
f 88//88 87//87 78//78
f 87//87 80//80 78//78
f 89//89 88//88 77//77
f 88//88 78//78 77//77
f 90//90 89//89 76//76
f 89//89 77//77 76//76
f 90//90 76//76 73//73
f 81//81 42//42 91//91
f 42//42 44//44 91//91
f 84//84 85//85 92//92
f 85//85 81//81 92//92
f 81//81 91//91 92//92
f 82//82 84//84 93//93
f 84//84 92//92 93//93
f 82//82 93//93 106//106
f 74//74 83//83 94//94
f 83//83 82//82 94//94
f 82//82 106//106 94//94
f 74//74 94//94 95//95
f 45//45 43//43 86//86
f 46//46 45//45 86//86
f 48//48 47//47 96//96
f 49//49 48//48 96//96
f 97//97 88//88 89//89
f 97//97 87//87 88//88
f 97//97 98//98 99//99
f 100//100 87//87 97//97
f 100//100 46//46 86//86
f 100//100 99//99 101//101
f 100//100 101//101 96//96
f 100//100 96//96 47//47
f 100//100 97//97 99//99
f 97//97 89//89 90//90
f 91//91 44//44 50//50
f 91//91 50//50 51//51
f 102//102 53//53 54//54
f 102//102 54//54 55//55
f 93//93 92//92 106//106
f 92//92 91//91 106//106
f 51//51 52//52 106//106
f 91//91 51//51 106//106
f 105//105 104//104 106//106
f 102//102 105//105 106//106
f 52//52 53//53 106//106
f 53//53 102//102 106//106
f 95//95 94//94 106//106
f 103//103 95//95 106//106
f 102//102 55//55 96//96
f 55//55 49//49 96//96
f 105//105 102//102 101//101
f 102//102 96//96 101//101
f 104//104 105//105 99//99
f 105//105 101//101 99//99
f 103//103 106//106 98//98
f 106//106 104//104 98//98
f 104//104 99//99 98//98
f 103//103 98//98 97//97
f 95//95 103//103 90//90
f 103//103 97//97 90//90
f 56//56 108//108 107//107
f 111//111 109//109 56//56
f 112//112 111//111 110//110
f 58//58 115//115 112//112
f 113//113 116//116 115//115
f 115//115 58//58 57//57
f 118//118 117//117 57//57
f 59//59 119//119 118//118
f 113//113 115//115 120//120
f 120//120 121//121 113//113
f 13//13 139//139 120//120
f 140//140 115//115 116//116
f 140//140 139//139 13//13
f 116//116 122//122 140//140
f 123//123 13//13 60//60
f 107//107 114//114 62//62
f 170//170 124//124 127//127
f 124//124 125//125 126//126
f 170//170 127//127 144//144
f 170//170 144//144 148//148
f 125//125 170//170 148//148
f 124//124 74//74 95//95
f 127//127 124//124 95//95
f 74//74 124//124 73//73
f 124//124 126//126 73//73
f 73//73 126//126 128//128
f 127//127 95//95 198//198
f 148//148 144//144 129//129
f 128//128 148//148 129//129
f 144//144 198//198 130//130
f 130//130 198//198 131//131
f 73//73 128//128 90//90
f 129//129 131//131 90//90
f 128//128 129//129 90//90
f 131//131 95//95 90//90
f 198//198 95//95 131//131
f 114//114 107//107 108//108
f 108//108 115//115 114//114
f 109//109 108//108 56//56
f 109//109 111//111 112//112
f 112//112 115//115 109//109
f 120//120 115//115 57//57
f 108//108 109//109 115//115
f 61//61 114//114 115//115
f 140//140 61//61 115//115
f 137//137 133//133 122//122
f 113//113 134//134 135//135
f 113//113 135//135 136//136
f 121//121 122//122 133//133
f 113//113 121//121 132//132
f 113//113 132//132 134//134
f 116//116 113//113 136//136
f 122//122 116//116 137//137
f 121//121 133//133 138//138
f 136//136 137//137 116//116
f 132//132 121//121 138//138
f 118//118 119//119 117//117
f 57//57 117//117 120//120
f 117//117 119//119 120//120
f 139//139 140//140 120//120
f 121//121 120//120 140//140
f 140//140 122//122 121//121
f 123//123 61//61 140//140
f 123//123 140//140 13//13
f 141//141 162//162 124//124
f 165//165 141//141 124//124
f 167//167 165//165 124//124
f 167//167 124//124 170//170
f 175//175 174//174 170//170
f 173//173 175//175 170//170
f 173//173 170//170 125//125
f 178//178 173//173 125//125
f 180//180 178//178 125//125
f 142//142 183//183 125//125
f 142//142 125//125 124//124
f 162//162 142//142 124//124
f 143//143 188//188 127//127
f 193//193 143//143 198//198
f 143//143 127//127 198//198
f 195//195 193//193 198//198
f 205//205 203//203 144//144
f 145//145 144//144 127//127
f 146//146 214//214 144//144
f 146//146 144//144 130//130
f 131//131 146//146 130//130
f 222//222 218//218 131//131
f 222//222 131//131 129//129
f 223//223 222//222 129//129
f 226//226 223//223 129//129
f 229//229 226//226 129//129
f 147//147 229//229 129//129
f 147//147 129//129 144//144
f 237//237 232//232 126//126
f 235//235 237//237 126//126
f 125//125 235//235 126//126
f 249//249 148//148 128//128
f 149//149 249//249 128//128
f 251//251 149//149 128//128
f 253//253 251//251 126//126
f 251//251 128//128 126//126
f 256//256 253//253 126//126
f 232//232 256//256 126//126
f 138//138 133//133 269//269
f 138//138 269//269 150//150
f 138//138 150//150 151//151
f 132//132 138//138 151//151
f 132//132 151//151 152//152
f 132//132 152//152 153//153
f 132//132 153//153 258//258
f 134//134 132//132 258//258
f 134//134 258//258 286//286
f 134//134 286//286 154//154
f 134//134 154//154 265//265
f 135//135 134//134 265//265
f 135//135 265//265 289//289
f 136//136 135//135 289//289
f 136//136 289//289 155//155
f 136//136 155//155 156//156
f 136//136 156//156 157//157
f 137//137 136//136 157//157
f 137//137 157//157 259//259
f 137//137 259//259 158//158
f 137//137 158//158 262//262
f 137//137 262//262 159//159
f 133//133 137//137 159//159
f 133//133 159//159 160//160
f 133//133 160//160 294//294
f 133//133 294//294 260//260
f 133//133 260//260 269//269
f 164//164 163//163 161//161
f 141//141 164//164 162//162
f 272//272 163//163 164//164
f 272//272 322//322 163//163
f 165//165 164//164 141//141
f 166//166 272//272 164//164
f 166//166 164//164 165//165
f 167//167 166//166 165//165
f 168//168 166//166 167//167
f 170//170 168//168 167//167
f 168//168 169//169 166//166
f 170//170 169//169 168//168
f 172//172 169//169 170//170
f 171//171 170//170 174//174
f 172//172 170//170 171//171
f 174//174 172//172 171//171
f 177//177 172//172 174//174
f 177//177 174//174 175//175
f 176//176 177//177 175//175
f 173//173 176//176 175//175
f 179//179 176//176 173//173
f 179//179 177//177 176//176
f 178//178 179//179 173//173
f 182//182 179//179 178//178
f 181//181 180//180 125//125
f 180//180 181//181 178//178
f 182//182 178//178 181//181
f 183//183 181//181 125//125
f 185//185 182//182 181//181
f 184//184 181//181 183//183
f 185//185 181//181 184//184
f 161//161 183//183 142//142
f 161//161 184//184 183//183
f 164//164 161//161 142//142
f 161//161 185//185 184//184
f 161//161 186//186 185//185
f 164//164 142//142 162//162
f 163//163 186//186 161//161
f 187//187 145//145 127//127
f 187//187 127//127 188//188
f 145//145 347//347 274//274
f 347//347 145//145 187//187
f 189//189 347//347 187//187
f 189//189 187//187 188//188
f 190//190 189//189 188//188
f 190//190 188//188 143//143
f 191//191 189//189 190//190
f 193//193 191//191 190//190
f 191//191 192//192 189//189
f 193//193 190//190 143//143
f 192//192 191//191 193//193
f 194//194 192//192 193//193
f 196//196 192//192 194//194
f 197//197 194//194 193//193
f 197//197 193//193 195//195
f 197//197 196//196 194//194
f 198//198 197//197 195//195
f 199//199 196//196 197//197
f 201//201 198//198 144//144
f 201//201 200//200 198//198
f 200//200 197//197 198//198
f 200//200 199//199 197//197
f 201//201 144//144 203//203
f 202//202 200//200 201//201
f 202//202 201//201 203//203
f 202//202 275//275 200//200
f 204//204 202//202 203//203
f 205//205 204//204 203//203
f 275//275 202//202 204//204
f 205//205 275//275 204//204
f 206//206 275//275 205//205
f 206//206 365//365 275//275
f 208//208 205//205 144//144
f 207//207 209//209 205//205
f 210//210 205//205 209//209
f 210//210 206//206 205//205
f 208//208 207//207 205//205
f 145//145 208//208 144//144
f 274//274 207//207 208//208
f 274//274 209//209 207//207
f 274//274 210//210 209//209
f 145//145 274//274 208//208
f 213//213 147//147 144//144
f 214//214 213//213 144//144
f 211//211 213//213 214//214
f 372//372 211//211 214//214
f 214//214 278//278 372//372
f 278//278 214//214 146//146
f 215//215 278//278 146//146
f 215//215 146//146 216//216
f 216//216 146//146 131//131
f 216//216 131//131 218//218
f 217//217 215//215 216//216
f 382//382 377//377 215//215
f 382//382 215//215 217//217
f 218//218 217//217 216//216
f 220//220 217//217 218//218
f 219//219 382//382 217//217
f 220//220 219//219 217//217
f 221//221 220//220 218//218
f 222//222 221//221 218//218
f 221//221 383//383 220//220
f 224//224 221//221 222//222
f 225//225 383//383 221//221
f 225//225 221//221 224//224
f 223//223 224//224 222//222
f 228//228 225//225 224//224
f 223//223 228//228 224//224
f 227//227 223//223 226//226
f 229//229 227//227 226//226
f 227//227 228//228 223//223
f 230//230 227//227 229//229
f 230//230 228//228 227//227
f 147//147 231//231 229//229
f 212//212 229//229 231//231
f 211//211 231//231 147//147
f 212//212 230//230 229//229
f 213//213 211//211 147//147
f 211//211 212//212 231//231
f 398//398 233//233 234//234
f 237//237 234//234 232//232
f 236//236 234//234 237//237
f 236//236 398//398 234//234
f 238//238 398//398 236//236
f 238//238 236//236 237//237
f 238//238 237//237 240//240
f 239//239 237//237 235//235
f 148//148 235//235 125//125
f 239//239 235//235 148//148
f 240//240 237//237 239//239
f 241//241 239//239 148//148
f 241//241 240//240 239//239
f 241//241 148//148 242//242
f 403//403 240//240 241//241
f 243//243 241//241 242//242
f 281//281 403//403 241//241
f 281//281 241//241 243//243
f 246//246 242//242 148//148
f 246//246 244//244 242//242
f 244//244 243//243 242//242
f 407//407 281//281 243//243
f 245//245 407//407 243//243
f 245//245 243//243 244//244
f 246//246 148//148 249//249
f 247//247 245//245 244//244
f 247//247 244//244 246//246
f 248//248 247//247 246//246
f 248//248 246//246 249//249
f 250//250 249//249 149//149
f 250//250 248//248 249//249
f 251//251 250//250 149//149
f 252//252 250//250 251//251
f 254//254 252//252 251//251
f 254//254 251//251 253//253
f 255//255 254//254 253//253
f 233//233 253//253 256//256
f 233//233 255//255 253//253
f 232//232 234//234 256//256
f 234//234 233//233 256//256
f 151//151 257//257 152//152
f 302//302 155//155 289//289
f 267//267 265//265 154//154
f 260//260 268//268 269//269
f 270//270 258//258 153//153
f 261//261 257//257 271//271
f 271//271 257//257 151//151
f 333//333 172//172 177//177
f 332//332 333//333 177//177
f 163//163 322//322 186//186
f 324//324 272//272 166//166
f 179//179 334//334 177//177
f 334//334 332//332 177//177
f 166//166 169//169 328//328
f 327//327 166//166 328//328
f 186//186 341//341 185//185
f 185//185 341//341 340//340
f 328//328 169//169 172//172
f 185//185 340//340 182//182
f 276//276 196//196 199//199
f 275//275 273//273 200//200
f 273//273 358//358 200//200
f 200//200 358//358 199//199
f 350//350 347//347 189//189
f 189//189 192//192 352//352
f 351//351 189//189 352//352
f 352//352 192//192 196//196
f 380//380 219//219 220//220
f 383//383 380//380 220//220
f 369//369 211//211 372//372
f 212//212 211//211 369//369
f 225//225 277//277 383//383
f 278//278 215//215 377//377
f 375//375 278//278 377//377
f 230//230 392//392 228//228
f 228//228 387//387 225//225
f 380//380 382//382 219//219
f 225//225 387//387 277//277
f 233//233 398//398 255//255
f 250//250 279//279 248//248
f 248//248 279//279 247//247
f 254//254 255//255 415//415
f 255//255 280//280 415//415
f 405//405 240//240 403//403
f 254//254 415//415 417//417
f 254//254 417//417 252//252
f 252//252 413//413 250//250
f 269//269 282//282 312//312
f 269//269 312//312 283//283
f 269//269 283//283 284//284
f 150//150 269//269 284//284
f 151//151 150//150 284//284
f 152//152 285//285 286//286
f 287//287 152//152 286//286
f 153//153 152//152 287//287
f 286//286 258//258 287//287
f 154//154 286//286 288//288
f 265//265 288//288 290//290
f 289//289 265//265 290//290
f 156//156 155//155 290//290
f 157//157 156//156 292//292
f 292//292 291//291 158//158
f 158//158 259//259 292//292
f 262//262 158//158 293//293
f 262//262 293//293 159//159
f 160//160 159//159 294//294
f 260//260 294//294 312//312
f 295//295 260//260 312//312
f 282//282 295//295 312//312
f 292//292 305//305 157//157
f 297//297 296//296 269//269
f 297//297 269//269 261//261
f 297//297 261//261 298//298
f 299//299 298//298 257//257
f 299//299 257//257 270//270
f 300//300 299//299 258//258
f 301//301 300//300 258//258
f 301//301 258//258 267//267
f 303//303 301//301 267//267
f 303//303 267//267 265//265
f 303//303 265//265 264//264
f 303//303 264//264 302//302
f 302//302 264//264 289//289
f 304//304 303//303 302//302
f 304//304 302//302 157//157
f 304//304 157//157 305//305
f 306//306 305//305 259//259
f 307//307 306//306 259//259
f 308//308 307//307 259//259
f 309//309 308//308 262//262
f 310//310 309//309 263//263
f 311//311 310//310 160//160
f 312//312 311//311 266//266
f 312//312 266//266 268//268
f 296//296 312//312 268//268
f 296//296 268//268 282//282
f 302//302 290//290 155//155
f 258//258 299//299 287//287
f 293//293 309//309 262//262
f 259//259 305//305 292//292
f 260//260 295//295 268//268
f 266//266 294//294 313//313
f 289//289 264//264 315//315
f 266//266 313//313 314//314
f 268//268 266//266 314//314
f 268//268 314//314 316//316
f 302//302 289//289 315//315
f 269//269 268//268 316//316
f 157//157 302//302 315//315
f 261//261 269//269 316//316
f 257//257 261//261 316//316
f 259//259 157//157 315//315
f 270//270 257//257 316//316
f 259//259 315//315 317//317
f 270//270 316//316 318//318
f 308//308 259//259 317//317
f 258//258 270//270 318//318
f 262//262 308//308 317//317
f 263//263 262//262 317//317
f 267//267 258//258 318//318
f 310//310 263//263 317//317
f 310//310 317//317 313//313
f 160//160 310//310 313//313
f 265//265 267//267 319//319
f 267//267 318//318 319//319
f 294//294 160//160 313//313
f 265//265 319//319 315//315
f 264//264 265//265 315//315
f 284//284 261//261 271//271
f 151//151 284//284 271//271
f 153//153 287//287 270//270
f 257//257 298//298 152//152
f 263//263 309//309 262//262
f 325//325 323//323 320//320
f 325//325 320//320 321//321
f 325//325 321//321 322//322
f 324//324 322//322 272//272
f 326//326 325//325 322//322
f 166//166 322//322 324//324
f 326//326 322//322 166//166
f 327//327 326//326 166//166
f 331//331 326//326 327//327
f 330//330 327//327 328//328
f 330//330 328//328 172//172
f 329//329 331//331 327//327
f 330//330 329//329 327//327
f 333//333 330//330 172//172
f 331//331 329//329 330//330
f 331//331 330//330 333//333
f 333//333 336//336 331//331
f 337//337 333//333 332//332
f 334//334 337//337 332//332
f 336//336 333//333 337//337
f 335//335 179//179 182//182
f 335//335 334//334 179//179
f 339//339 337//337 334//334
f 339//339 422//422 336//336
f 338//338 335//335 182//182
f 338//338 334//334 335//335
f 338//338 339//339 334//334
f 339//339 336//336 337//337
f 340//340 338//338 182//182
f 342//342 339//339 338//338
f 342//342 338//338 340//340
f 321//321 341//341 186//186
f 320//320 340//340 341//341
f 321//321 320//320 341//341
f 323//323 340//340 320//320
f 323//323 342//342 340//340
f 322//322 321//321 186//186
f 347//347 345//345 274//274
f 346//346 343//343 344//344
f 347//347 344//344 345//345
f 348//348 346//346 344//344
f 349//349 344//344 347//347
f 349//349 347//347 350//350
f 353//353 348//348 344//344
f 353//353 344//344 349//349
f 350//350 351//351 353//353
f 353//353 349//349 350//350
f 351//351 350//350 189//189
f 352//352 353//353 351//351
f 354//354 353//353 352//352
f 355//355 354//354 352//352
f 355//355 352//352 196//196
f 355//355 196//196 276//276
f 356//356 276//276 199//199
f 357//357 429//429 355//355
f 360//360 199//199 358//358
f 360//360 356//356 199//199
f 357//357 355//355 276//276
f 360//360 276//276 356//356
f 359//359 429//429 357//357
f 273//273 360//360 358//358
f 359//359 357//357 276//276
f 361//361 276//276 360//360
f 361//361 359//359 276//276
f 362//362 360//360 273//273
f 365//365 273//273 275//275
f 364//364 361//361 360//360
f 364//364 360//360 362//362
f 363//363 362//362 273//273
f 363//363 273//273 365//365
f 366//366 362//362 363//363
f 366//366 364//364 362//362
f 343//343 365//365 367//367
f 367//367 365//365 206//206
f 344//344 210//210 274//274
f 344//344 367//367 206//206
f 344//344 206//206 210//210
f 343//343 363//363 365//365
f 344//344 343//343 367//367
f 343//343 366//366 363//363
f 345//345 344//344 274//274
f 371//371 368//368 370//370
f 370//370 368//368 369//369
f 373//373 369//369 372//372
f 370//370 369//369 371//371
f 373//373 371//371 369//369
f 373//373 372//372 375//375
f 373//373 375//375 376//376
f 374//374 433//433 371//371
f 374//374 371//371 373//373
f 376//376 374//374 373//373
f 375//375 372//372 278//278
f 376//376 375//375 377//377
f 378//378 376//376 377//377
f 382//382 378//378 377//377
f 378//378 379//379 376//376
f 379//379 434//434 376//376
f 381//381 379//379 378//378
f 384//384 382//382 380//380
f 381//381 378//378 382//382
f 384//384 381//381 382//382
f 383//383 384//384 380//380
f 387//387 383//383 277//277
f 385//385 384//384 383//383
f 386//386 436//436 384//384
f 386//386 384//384 385//385
f 388//388 383//383 387//387
f 388//388 385//385 383//383
f 388//388 386//386 385//385
f 389//389 228//228 392//392
f 389//389 387//387 228//228
f 389//389 388//388 387//387
f 388//388 438//438 437//437
f 391//391 388//388 389//389
f 390//390 392//392 230//230
f 368//368 389//389 392//392
f 391//391 438//438 388//388
f 369//369 230//230 212//212
f 369//369 392//392 390//390
f 369//369 390//390 230//230
f 368//368 391//391 389//389
f 369//369 368//368 392//392
f 439//439 391//391 368//368
f 397//397 255//255 398//398
f 394//394 395//395 393//393
f 396//396 395//395 394//394
f 400//400 394//394 397//397
f 441//441 396//396 394//394
f 399//399 441//441 394//394
f 399//399 394//394 400//400
f 400//400 397//397 398//398
f 400//400 398//398 238//238
f 400//400 238//238 402//402
f 401//401 399//399 400//400
f 402//402 401//401 400//400
f 240//240 402//402 238//238
f 405//405 402//402 240//240
f 444//444 402//402 405//405
f 404//404 402//402 444//444
f 407//407 403//403 281//281
f 407//407 405//405 403//403
f 408//408 444//444 405//405
f 406//406 407//407 245//245
f 406//406 245//245 247//247
f 408//408 405//405 407//407
f 411//411 407//407 406//406
f 411//411 406//406 247//247
f 408//408 410//410 444//444
f 409//409 411//411 247//247
f 409//409 247//247 279//279
f 410//410 408//408 407//407
f 411//411 410//410 407//407
f 412//412 279//279 250//250
f 447//447 446//446 410//410
f 447//447 410//410 411//411
f 413//413 412//412 250//250
f 279//279 411//411 409//409
f 414//414 447//447 411//411
f 414//414 411//411 279//279
f 416//416 279//279 412//412
f 395//395 413//413 252//252
f 414//414 279//279 416//416
f 416//416 412//412 413//413
f 417//417 395//395 252//252
f 416//416 395//395 414//414
f 394//394 280//280 255//255
f 394//394 417//417 415//415
f 394//394 415//415 280//280
f 395//395 416//416 413//413
f 393//393 395//395 417//417
f 394//394 393//393 417//417
f 397//397 394//394 255//255
f 284//284 298//298 261//261
f 152//152 298//298 284//284
f 287//287 299//299 270//270
f 267//267 288//288 265//265
f 267//267 154//154 288//288
f 302//302 289//289 290//290
f 309//309 293//293 262//262
f 294//294 266//266 311//311
f 294//294 311//311 160//160
f 295//295 282//282 268//268
f 269//269 296//296 282//282
f 291//291 292//292 305//305
f 291//291 305//305 306//306
f 158//158 291//291 306//306
f 158//158 306//306 307//307
f 305//305 292//292 304//304
f 158//158 307//307 308//308
f 292//292 156//156 304//304
f 293//293 158//158 308//308
f 293//293 308//308 309//309
f 156//156 290//290 303//303
f 304//304 156//156 303//303
f 159//159 293//293 310//310
f 293//293 309//309 310//310
f 159//159 310//310 294//294
f 303//303 290//290 288//288
f 294//294 310//310 311//311
f 303//303 288//288 301//301
f 294//294 311//311 312//312
f 301//301 288//288 286//286
f 300//300 301//301 286//286
f 299//299 300//300 286//286
f 312//312 296//296 283//283
f 296//296 297//297 283//283
f 299//299 286//286 285//285
f 283//283 297//297 284//284
f 299//299 285//285 152//152
f 298//298 299//299 152//152
f 297//297 298//298 152//152
f 297//297 152//152 284//284
f 315//315 314//314 313//313
f 315//315 313//313 317//317
f 315//315 316//316 314//314
f 315//315 318//318 316//316
f 319//319 318//318 315//315
f 418//418 323//323 325//325
f 419//419 418//418 325//325
f 421//421 420//420 326//326
f 419//419 325//325 326//326
f 421//421 326//326 331//331
f 420//420 419//419 326//326
f 421//421 331//331 336//336
f 422//422 421//421 336//336
f 423//423 422//422 339//339
f 342//342 423//423 339//339
f 424//424 342//342 323//323
f 425//425 424//424 323//323
f 426//426 348//348 353//353
f 429//429 353//353 354//354
f 429//429 427//427 353//353
f 429//429 354//354 355//355
f 428//428 426//426 353//353
f 427//427 428//428 353//353
f 430//430 429//429 359//359
f 431//431 361//361 364//364
f 431//431 359//359 361//361
f 431//431 364//364 366//366
f 431//431 366//366 343//343
f 346//346 431//431 343//343
f 433//433 440//440 371//371
f 434//434 432//432 376//376
f 433//433 374//374 376//376
f 434//434 379//379 381//381
f 432//432 433//433 376//376
f 434//434 381//381 384//384
f 435//435 384//384 436//436
f 435//435 434//434 384//384
f 437//437 386//386 388//388
f 437//437 436//436 386//386
f 439//439 438//438 391//391
f 440//440 439//439 368//368
f 440//440 368//368 371//371
f 401//401 441//441 399//399
f 404//404 442//442 402//402
f 442//442 401//401 402//402
f 443//443 404//404 444//444
f 445//445 444//444 410//410
f 446//446 445//445 410//410
f 448//448 447//447 414//414
f 448//448 414//414 395//395
f 449//449 395//395 396//396
f 449//449 448//448 395//395
f 441//441 449//449 396//396
f 418//418 419//419 323//323
f 425//425 323//323 424//424
f 323//323 419//419 424//424
f 419//419 420//420 342//342
f 420//420 421//421 342//342
f 424//424 419//419 342//342
f 342//342 421//421 423//423
f 423//423 421//421 422//422
f 426//426 428//428 429//429
f 428//428 427//427 429//429
f 348//348 426//426 429//429
f 346//346 348//348 429//429
f 431//431 346//346 429//429
f 429//429 430//430 359//359
f 431//431 429//429 359//359
f 440//440 433//433 434//434
f 433//433 432//432 434//434
f 440//440 434//434 435//435
f 439//439 440//440 436//436
f 438//438 439//439 436//436
f 437//437 438//438 436//436
f 440//440 435//435 436//436
f 449//449 441//441 448//448
f 441//441 401//401 448//448
f 401//401 442//442 447//447
f 448//448 401//401 447//447
f 404//404 443//443 444//444
f 442//442 404//404 447//447
f 444//444 445//445 446//446
f 404//404 444//444 446//446
f 447//447 404//404 446//446

